<?xml version="1.0" encoding="UTF-8"?><svg id="Capa_2" xmlns="http://www.w3.org/2000/svg" viewBox="0 0 269.65 73.41"><g id="Capa_1-2"><g><path d="M13.96,41.22v3.86c0,.44,.01,1.21,.04,2.3,.03,1.1,.01,2.23-.04,3.41-.06,1.18-.16,2.27-.33,3.28-.16,1.01-.41,1.68-.74,2.01-.22,.22-.57,.41-1.07,.57s-1.01,.3-1.56,.41c-.55,.11-1.08,.19-1.6,.24-.52,.06-.94,.08-1.27,.08-1.53,0-2.79-.06-3.78-.16-.99-.11-1.81-.38-2.46-.82-.11-.11-.21-.42-.29-.95-.08-.52-.15-1.09-.21-1.72-.06-.63-.1-1.23-.12-1.81-.03-.57-.04-.94-.04-1.11-.11-3.06-.18-6.05-.21-8.95-.03-2.9-.04-5.88-.04-8.95,0-2.3-.03-4.82-.08-7.55-.06-2.74-.1-5.42-.12-8.05-.03-2.63-.04-5.08-.04-7.35S.05,5.89,.16,4.52c.05-.93,.48-1.63,1.27-2.09,.79-.46,1.75-.78,2.87-.94,1.12-.16,2.28-.25,3.49-.25h3.12c3.56,0,6.94,.15,10.14,.45,3.2,.3,6.02,1.1,8.46,2.38,2.43,1.29,4.38,3.2,5.83,5.75,1.45,2.55,2.18,6.04,2.18,10.47,0,3.83-.56,7.08-1.68,9.73-1.12,2.66-2.71,4.82-4.76,6.49-2.05,1.67-4.53,2.87-7.43,3.61-2.9,.74-6.13,1.11-9.69,1.11Zm-.66-27.18c0,2.08,.03,4.08,.08,5.99,.05,1.92,.11,3.83,.16,5.75l.08,4.11c.49,.06,1,.1,1.52,.12,.52,.03,1.05,.04,1.6,.04,2.13,0,3.98-.73,5.54-2.18,1.56-1.45,2.34-3.74,2.34-6.86,0-1.31-.23-2.45-.7-3.41-.47-.96-1.1-1.77-1.89-2.42-.79-.66-1.71-1.14-2.75-1.44-1.04-.3-2.13-.45-3.28-.45-.06,0-.23-.01-.53-.04-.3-.03-.62-.01-.94,.04-.33,.06-.62,.12-.86,.21s-.37,.26-.37,.53Z" style="fill:#2c2738;"/><path d="M66.51,53.7c-1.48,1.26-3.09,2.25-4.84,2.96-1.75,.71-3.61,1.07-5.58,1.07-2.9,0-5.38-.57-7.43-1.73-2.05-1.15-3.74-2.67-5.05-4.56-1.31-1.89-2.29-4.05-2.91-6.49-.63-2.44-.94-4.94-.94-7.51s.31-5.05,.94-7.59c.63-2.55,1.63-4.86,3-6.94,1.37-2.08,3.09-3.78,5.17-5.09,2.08-1.31,4.57-1.97,7.47-1.97,2.02,0,3.93,.26,5.71,.78,1.78,.52,3.33,1.63,4.64,3.33v-.82c0-.55,.29-.97,.86-1.27,.58-.3,1.26-.53,2.05-.7,.79-.16,1.57-.26,2.34-.29,.77-.03,1.34-.04,1.72-.04,.55,0,1.14,.01,1.77,.04,.63,.03,1.23,.12,1.81,.29,.57,.16,1.05,.45,1.44,.86,.38,.41,.57,1,.57,1.77v8.46l.16,16.91v8.46c0,.93-.25,1.64-.74,2.14-.49,.49-1.1,.86-1.81,1.11-.71,.25-1.48,.38-2.3,.41s-1.56,.04-2.22,.04h-1.72c-.66,0-1.29-.07-1.89-.2-.6-.14-1.11-.38-1.52-.74-.41-.36-.62-.89-.62-1.6v-.53c0-.19-.03-.37-.08-.53Zm-7.47-8.05c1.15,0,2.16-.25,3.04-.74,.87-.49,1.59-1.15,2.13-1.97,.55-.82,.96-1.74,1.23-2.75,.27-1.01,.41-2.04,.41-3.08,0-.99-.14-2.04-.41-3.16-.27-1.12-.7-2.18-1.27-3.16-.57-.99-1.3-1.81-2.18-2.46-.88-.66-1.89-.99-3.04-.99s-2.05,.34-2.87,1.03c-.82,.69-1.49,1.52-2.01,2.5-.52,.99-.9,2.04-1.15,3.16-.25,1.12-.37,2.15-.37,3.08,0,.99,.12,1.98,.37,3,.25,1.01,.63,1.93,1.15,2.75,.52,.82,1.19,1.49,2.01,2.01,.82,.52,1.81,.78,2.96,.78Z" style="fill:#2c2738;"/><path d="M83.18,69.96c0-.33,.01-.86,.04-1.6,.03-.74,.11-1.49,.25-2.26,.14-.77,.33-1.44,.57-2.01,.25-.57,.59-.86,1.03-.86,.6,0,1.15,.07,1.64,.21,.49,.14,1.04,.21,1.64,.21,.93,0,1.72-.26,2.38-.78,.66-.52,1.18-1.16,1.56-1.93,.38-.77,.66-1.6,.82-2.5,.16-.9,.25-1.74,.25-2.5,0-.05-.11-.41-.33-1.07-.22-.66-.48-1.4-.78-2.22-.3-.82-.57-1.6-.82-2.34s-.42-1.19-.53-1.36c-.27-.77-.71-1.94-1.31-3.53-.6-1.59-1.25-3.41-1.93-5.46-.68-2.05-1.4-4.19-2.13-6.41-.74-2.22-1.42-4.31-2.05-6.28-.63-1.97-1.14-3.71-1.52-5.21-.38-1.5-.57-2.53-.57-3.08,0-.44,.15-.78,.45-1.03,.3-.25,.67-.44,1.11-.57,.44-.14,.88-.23,1.31-.29,.44-.05,.82-.08,1.15-.08h2.18c.85,0,1.71,.04,2.59,.12,.88,.08,1.68,.26,2.42,.53,.74,.27,1.27,.71,1.6,1.31,.11,.16,.3,.77,.57,1.81,.27,1.04,.59,2.31,.94,3.82,.36,1.51,.74,3.15,1.15,4.93,.41,1.78,.81,3.49,1.19,5.13,.38,1.64,.75,3.12,1.11,4.43,.36,1.31,.64,2.27,.86,2.87,.44-1.09,.85-2.35,1.23-3.78,.38-1.42,.77-2.89,1.15-4.39,.38-1.51,.75-3,1.11-4.47,.36-1.48,.67-2.79,.94-3.94,.27-1.04,.49-2.13,.66-3.28,.16-1.15,.46-2.19,.9-3.12,.38-.77,1.01-1.29,1.89-1.56,.88-.27,1.7-.41,2.46-.41,.33,0,.87-.01,1.64-.04,.77-.03,1.56,0,2.38,.08,.82,.08,1.55,.22,2.18,.41,.63,.19,.94,.51,.94,.94,0,.49-.1,1.18-.29,2.05-.19,.88-.42,1.79-.7,2.75-.27,.96-.55,1.89-.82,2.79-.27,.9-.49,1.63-.66,2.18-1.42,4.82-2.85,9.66-4.27,14.53-1.42,4.87-2.98,9.69-4.68,14.45-.66,1.86-1.45,3.75-2.38,5.67-.93,1.92-2.04,3.65-3.33,5.21-1.29,1.56-2.79,2.85-4.52,3.86-1.72,1.01-3.74,1.52-6.04,1.52-.55,0-1.19-.04-1.93-.12-.74-.08-1.47-.25-2.18-.49-.71-.25-1.31-.6-1.81-1.07-.49-.47-.74-1.05-.74-1.76Z" style="fill:#2c2738;"/><path d="M143.28,53.7c-1.48,1.26-3.09,2.25-4.84,2.96-1.75,.71-3.61,1.07-5.58,1.07-2.9,0-5.38-.57-7.43-1.73-2.05-1.15-3.74-2.67-5.05-4.56-1.31-1.89-2.29-4.05-2.91-6.49-.63-2.44-.94-4.94-.94-7.51s.31-5.05,.94-7.59c.63-2.55,1.63-4.86,3-6.94,1.37-2.08,3.09-3.78,5.17-5.09,2.08-1.31,4.57-1.97,7.47-1.97,2.02,0,3.93,.26,5.71,.78,1.78,.52,3.33,1.63,4.64,3.33v-.82c0-.55,.29-.97,.86-1.27,.58-.3,1.26-.53,2.05-.7,.79-.16,1.57-.26,2.34-.29,.77-.03,1.34-.04,1.72-.04,.55,0,1.14,.01,1.77,.04,.63,.03,1.23,.12,1.81,.29,.57,.16,1.05,.45,1.44,.86,.38,.41,.57,1,.57,1.77v8.46l.16,16.91v8.46c0,.93-.25,1.64-.74,2.14-.49,.49-1.1,.86-1.81,1.11-.71,.25-1.48,.38-2.3,.41-.82,.03-1.56,.04-2.22,.04h-1.72c-.66,0-1.29-.07-1.89-.2-.6-.14-1.11-.38-1.52-.74-.41-.36-.62-.89-.62-1.6v-.53c0-.19-.03-.37-.08-.53Zm-7.47-8.05c1.15,0,2.16-.25,3.04-.74,.87-.49,1.59-1.15,2.14-1.97,.55-.82,.96-1.74,1.23-2.75,.27-1.01,.41-2.04,.41-3.08,0-.99-.14-2.04-.41-3.16-.27-1.12-.7-2.18-1.27-3.16-.57-.99-1.3-1.81-2.18-2.46-.88-.66-1.89-.99-3.04-.99s-2.05,.34-2.87,1.03c-.82,.69-1.49,1.52-2.01,2.5-.52,.99-.9,2.04-1.15,3.16-.25,1.12-.37,2.15-.37,3.08,0,.99,.12,1.98,.37,3,.25,1.01,.63,1.93,1.15,2.75,.52,.82,1.19,1.49,2.01,2.01,.82,.52,1.81,.78,2.96,.78Z" style="fill:#2c2738;"/><path d="M175.96,45.24c0-.49-.41-.94-1.23-1.35-.82-.41-1.83-.87-3.04-1.4-1.2-.52-2.53-1.15-3.98-1.89-1.45-.74-2.78-1.64-3.98-2.71-1.2-1.07-2.22-2.38-3.04-3.94-.82-1.56-1.23-3.41-1.23-5.54,0-1.97,.41-3.71,1.23-5.21,.82-1.51,1.91-2.76,3.28-3.78,1.37-1.01,2.92-1.78,4.64-2.3,1.73-.52,3.49-.78,5.3-.78,.99,0,2.24,.1,3.78,.29,1.53,.19,3.02,.53,4.47,1.03s2.71,1.16,3.78,2.01c1.07,.85,1.6,1.93,1.6,3.24,0,.55-.15,1.22-.45,2.01-.3,.79-.7,1.56-1.19,2.3-.49,.74-1.04,1.37-1.64,1.89-.6,.52-1.23,.78-1.89,.78-.27,0-.49-.08-.66-.25-.55-.16-1.07-.44-1.56-.82-.49-.38-.99-.75-1.48-1.11-.49-.36-1.01-.67-1.56-.94-.55-.27-1.12-.41-1.72-.41-.27,0-.6,.03-.99,.08-.38,.06-.75,.15-1.11,.29-.36,.14-.66,.32-.9,.53-.25,.22-.37,.52-.37,.9,0,.82,.4,1.49,1.19,2.01,.79,.52,1.79,1.01,3,1.48,1.2,.47,2.52,1,3.94,1.6,1.42,.6,2.74,1.38,3.94,2.34,1.2,.96,2.2,2.18,3,3.65,.79,1.48,1.19,3.34,1.19,5.58s-.41,4.26-1.23,5.87c-.82,1.61-1.94,2.96-3.37,4.02-1.42,1.07-3.07,1.85-4.93,2.34-1.86,.49-3.83,.74-5.91,.74-1.1,0-2.44-.11-4.02-.33-1.59-.22-3.11-.59-4.56-1.11-1.45-.52-2.68-1.26-3.7-2.22-1.01-.96-1.52-2.18-1.52-3.65,0-.49,.12-1.14,.37-1.93,.25-.79,.57-1.57,.99-2.34s.87-1.44,1.4-2.01c.52-.57,1.05-.86,1.6-.86,.22,0,.63,.19,1.23,.57,.6,.38,1.33,.79,2.18,1.23,.85,.44,1.78,.85,2.79,1.23,1.01,.38,2.01,.57,3,.57,.66,0,1.38-.07,2.18-.21,.79-.14,1.19-.64,1.19-1.52Z" style="fill:#2c2738;"/><path d="M190.82,6.9c0-1.97,.63-3.61,1.89-4.93,1.26-1.31,2.87-1.97,4.84-1.97,1.04,0,2.04,.15,3,.45,.96,.3,1.82,.75,2.59,1.35,.77,.6,1.38,1.33,1.85,2.18,.46,.85,.7,1.85,.7,3,0,2.08-.74,3.81-2.22,5.17-1.48,1.37-3.23,2.05-5.26,2.05s-3.83-.7-5.25-2.09c-1.42-1.4-2.13-3.13-2.13-5.21Zm8.87,50.58c-.38,0-.93-.03-1.64-.08-.71-.06-1.45-.12-2.22-.21-.77-.08-1.48-.21-2.14-.37-.66-.16-1.12-.36-1.4-.57-.33-.22-.49-.46-.49-.74v-8.62l-.08-17.32v-8.62c0-.99,.23-1.74,.7-2.26,.46-.52,1.05-.9,1.77-1.15,.71-.25,1.46-.38,2.26-.41,.79-.03,1.55-.04,2.26-.04h1.64c1.09,0,1.94,.12,2.55,.37,.6,.25,1.04,.59,1.31,1.03,.27,.44,.45,1,.53,1.68,.08,.68,.12,1.47,.12,2.34V55.51c0,.49-.21,.86-.62,1.11-.41,.25-.9,.44-1.48,.57-.57,.14-1.15,.22-1.72,.25-.57,.03-1.03,.04-1.36,.04Z" style="fill:#2c2738;"/><path d="M208.89,27.84c-.38,0-.71-.23-.99-.7-.27-.46-.49-1.01-.66-1.64-.16-.63-.29-1.24-.37-1.85-.08-.6-.12-1.04-.12-1.31,0-1.15,.05-2.07,.16-2.75,.11-.68,.36-1.19,.74-1.52,.38-.33,.9-.53,1.56-.62,.66-.08,1.56-.12,2.71-.12,.11-2.68,.42-5.05,.95-7.1,.52-2.05,1.35-3.76,2.5-5.13,1.15-1.37,2.68-2.39,4.6-3.08,1.91-.68,4.32-1.03,7.23-1.03,.66,0,1.46,.06,2.42,.16,.96,.11,1.89,.32,2.79,.62,.9,.3,1.67,.71,2.3,1.23,.63,.52,.94,1.22,.94,2.09,0,.44-.01,1.1-.04,1.97-.03,.88-.12,1.75-.29,2.63-.16,.88-.42,1.64-.78,2.3s-.86,.99-1.52,.99c-.44,0-.83-.08-1.19-.25-.36-.16-.75-.25-1.19-.25-.44-.16-.89-.3-1.35-.41-.47-.11-.94-.16-1.44-.16-.66,0-1.18,.19-1.56,.57-.38,.38-.68,.85-.9,1.4-.22,.55-.36,1.14-.41,1.77-.06,.63-.08,1.19-.08,1.68,1.53,0,2.82-.03,3.86-.08,1.04-.05,1.87,.07,2.5,.37,.63,.3,1.08,.84,1.35,1.6,.27,.77,.41,1.97,.41,3.61s-.14,2.74-.41,3.45c-.27,.71-.71,1.19-1.31,1.44-.6,.25-1.42,.33-2.46,.25-1.04-.08-2.33-.12-3.86-.12,.05,4.65,.12,9.28,.21,13.88,.08,4.6,.12,9.23,.12,13.88,0,.6-.26,1.08-.78,1.44-.52,.36-1.14,.62-1.85,.78-.71,.16-1.44,.27-2.18,.33-.74,.05-1.33,.08-1.77,.08-.99,0-1.9-.04-2.75-.12-.85-.08-1.57-.29-2.18-.62-.6-.33-1.08-.82-1.44-1.48-.36-.66-.53-1.59-.53-2.79,0-4.27,.03-8.5,.08-12.69,.05-4.19,.22-8.42,.49-12.69h-3.53Z" style="fill:#2c2738;"/><path d="M235.32,69.96c0-.33,.01-.86,.04-1.6s.11-1.49,.25-2.26c.14-.77,.33-1.44,.57-2.01,.25-.57,.59-.86,1.03-.86,.6,0,1.15,.07,1.64,.21,.49,.14,1.04,.21,1.64,.21,.93,0,1.72-.26,2.38-.78,.66-.52,1.18-1.16,1.56-1.93,.38-.77,.66-1.6,.82-2.5,.16-.9,.25-1.74,.25-2.5,0-.05-.11-.41-.33-1.07-.22-.66-.48-1.4-.78-2.22-.3-.82-.57-1.6-.82-2.34-.25-.74-.43-1.19-.53-1.36-.27-.77-.71-1.94-1.31-3.53-.6-1.59-1.25-3.41-1.93-5.46-.68-2.05-1.4-4.19-2.13-6.41-.74-2.22-1.42-4.31-2.05-6.28-.63-1.97-1.14-3.71-1.52-5.21-.38-1.5-.57-2.53-.57-3.08,0-.44,.15-.78,.45-1.03,.3-.25,.67-.44,1.11-.57,.44-.14,.87-.23,1.31-.29,.44-.05,.82-.08,1.15-.08h2.18c.85,0,1.71,.04,2.59,.12,.87,.08,1.68,.26,2.42,.53,.74,.27,1.27,.71,1.6,1.31,.11,.16,.3,.77,.57,1.81,.27,1.04,.59,2.31,.95,3.82,.36,1.51,.74,3.15,1.15,4.93,.41,1.78,.81,3.49,1.19,5.13,.38,1.64,.75,3.12,1.11,4.43,.36,1.31,.64,2.27,.86,2.87,.44-1.09,.85-2.35,1.23-3.78,.38-1.42,.77-2.89,1.15-4.39,.38-1.51,.75-3,1.11-4.47,.36-1.48,.67-2.79,.94-3.94,.27-1.04,.49-2.13,.66-3.28,.16-1.15,.46-2.19,.9-3.12,.38-.77,1.01-1.29,1.89-1.56,.87-.27,1.7-.41,2.46-.41,.33,0,.87-.01,1.64-.04,.77-.03,1.56,0,2.38,.08,.82,.08,1.55,.22,2.18,.41,.63,.19,.94,.51,.94,.94,0,.49-.1,1.18-.29,2.05-.19,.88-.42,1.79-.7,2.75-.27,.96-.55,1.89-.82,2.79-.27,.9-.49,1.63-.66,2.18-1.42,4.82-2.85,9.66-4.27,14.53-1.42,4.87-2.98,9.69-4.68,14.45-.66,1.86-1.45,3.75-2.38,5.67-.93,1.92-2.04,3.65-3.33,5.21-1.29,1.56-2.79,2.85-4.52,3.86-1.72,1.01-3.74,1.52-6.03,1.52-.55,0-1.19-.04-1.93-.12-.74-.08-1.47-.25-2.18-.49-.71-.25-1.31-.6-1.81-1.07-.49-.47-.74-1.05-.74-1.76Z" style="fill:#2c2738;"/></g></g></svg>